{
  "source": "C:\\Users\\Peter\\Desktop\\stuff\\MIUN\\quantitative_research\\video_compression\\videos\\BVI-HD\\BVI-HD_CDVL_videos\\ORIG\\PaintingTilting_1920x1080_60fps.mp4",
  "output": "C:\\Users\\Peter\\Desktop\\stuff\\MIUN\\quantitative_research\\video_compression\\compressed_videos\\BVI-HD\\h264\\8\\PaintingTilting_1920x1080_60fps_h264.mp4",
  "codec": "h264",
  "ok": "Input #0, mov,mp4,m4a,3gp,3g2,mj2, from 'C:\\Users\\Peter\\Desktop\\stuff\\MIUN\\quantitative_research\\video_compression\\videos\\BVI-HD\\BVI-HD_CDVL_videos\\ORIG\\PaintingTilting_1920x1080_60fps.mp4':\n  Metadata:\n    major_brand     : isom\n    minor_version   : 512\n    compatible_brands: isomiso2avc1mp41\n    encoder         : Lavf54.28.101\n  Duration: 00:00:05.00, start: 0.000000, bitrate: 667707 kb/s\n  Stream #0:0[0x1](und): Video: h264 (High 4:4:4 Predictive) (avc1 / 0x31637661), yuv420p(progressive), 1920x1080, 667702 kb/s, 60 fps, 60 tbr, 60 tbn (default)\n    Metadata:\n      handler_name    : VideoHandler\n      vendor_id       : [0][0][0][0]\n[out#0/mp4 @ 00000296ac4b9cc0] Codec AVOption b:a (set bitrate (in bits/s)) has not been used for any stream. The most likely reason is either wrong type (e.g. a video option with no video streams) or that it is a private option of some decoder which was not actually used for any stream.\nStream mapping:\n  Stream #0:0 -> #0:0 (h264 (native) -> h264 (libx264))\nPress [q] to stop, [?] for help\n[libx264 @ 00000296ac4cbc80] using cpu capabilities: MMX2 SSE2Fast SSSE3 SSE4.2 AVX FMA3 BMI2 AVX2\n[libx264 @ 00000296ac4cbc80] profile High, level 5.0, 4:2:0, 8-bit\n[libx264 @ 00000296ac4cbc80] 264 - core 165 r3222 b35605a - H.264/MPEG-4 AVC codec - Copyleft 2003-2025 - http://www.videolan.org/x264.html - options: cabac=1 ref=5 deblock=1:0:0 analyse=0x3:0x113 me=hex subme=8 psy=1 psy_rd=1.00:0.00 mixed_ref=1 me_range=16 chroma_me=1 trellis=2 8x8dct=1 cqm=0 deadzone=21,11 fast_pskip=1 chroma_qp_offset=-2 threads=18 lookahead_threads=3 sliced_threads=0 nr=0 decimate=1 interlaced=0 bluray_compat=0 constrained_intra=0 bframes=3 b_pyramid=2 b_adapt=1 b_bias=0 direct=3 weightb=1 open_gop=0 weightp=2 keyint=250 keyint_min=25 scenecut=40 intra_refresh=0 rc_lookahead=50 rc=cbr mbtree=1 bitrate=8000 ratetol=1.0 qcomp=0.60 qpmin=0 qpmax=69 qpstep=4 vbv_maxrate=8000 vbv_bufsize=8000 nal_hrd=none filler=0 ip_ratio=1.40 aq=1:1.00\nOutput #0, mp4, to 'C:\\Users\\Peter\\Desktop\\stuff\\MIUN\\quantitative_research\\video_compression\\compressed_videos\\BVI-HD\\h264\\8\\PaintingTilting_1920x1080_60fps_h264.mp4':\n  Metadata:\n    major_brand     : isom\n    minor_version   : 512\n    compatible_brands: isomiso2avc1mp41\n    encoder         : Lavf62.3.100\n  Stream #0:0(und): Video: h264 (avc1 / 0x31637661), yuv420p(tv, progressive), 1920x1080, q=2-31, 8000 kb/s, 60 fps, 15360 tbn (default)\n    Metadata:\n      encoder         : Lavc62.11.100 libx264\n      handler_name    : VideoHandler\n      vendor_id       : [0][0][0][0]\n    Side data:\n      cpb: bitrate max/min/avg: 8000000/0/8000000 buffer size: 8000000 vbv_delay: N/A\nframe=    0 fps=0.0 q=0.0 size=       0KiB time=N/A bitrate=N/A speed=N/A elapsed=0:00:01.17    \nframe=    0 fps=0.0 q=0.0 size=       0KiB time=N/A bitrate=N/A speed=N/A elapsed=0:00:01.77    \nframe=    0 fps=0.0 q=0.0 size=       0KiB time=N/A bitrate=N/A speed=N/A elapsed=0:00:02.39    \nframe=    0 fps=0.0 q=0.0 size=       0KiB time=N/A bitrate=N/A speed=N/A elapsed=0:00:02.96    \nframe=   20 fps=5.6 q=31.0 size=     256KiB time=00:00:00.16 bitrate=12585.2kbits/s speed=0.0469x elapsed=0:00:03.55    \nframe=   33 fps=7.8 q=31.0 size=     256KiB time=00:00:00.45 bitrate=4661.2kbits/s speed=0.106x elapsed=0:00:04.24    \nframe=   57 fps= 12 q=31.0 size=     512KiB time=00:00:00.91 bitrate=4576.0kbits/s speed=0.187x elapsed=0:00:04.89    \nframe=   77 fps= 14 q=31.0 size=     768KiB time=00:00:01.25 bitrate=5033.5kbits/s speed=0.228x elapsed=0:00:05.48    \nframe=   97 fps= 16 q=31.0 size=    1024KiB time=00:00:01.51 bitrate=5531.2kbits/s speed=0.248x elapsed=0:00:06.12    \nframe=  113 fps= 17 q=31.0 size=    1024KiB time=00:00:01.78 bitrate=4704.1kbits/s speed=0.263x elapsed=0:00:06.77    \nframe=  131 fps= 18 q=30.0 size=    1280KiB time=00:00:02.11 bitrate=4954.1kbits/s speed=0.287x elapsed=0:00:07.36    \nframe=  149 fps= 19 q=30.0 size=    1536KiB time=00:00:02.38 bitrate=5279.7kbits/s speed=0.301x elapsed=0:00:07.90    \nframe=  168 fps= 20 q=30.0 size=    1792KiB time=00:00:02.65 bitrate=5539.8kbits/s speed=0.311x elapsed=0:00:08.52    \nframe=  177 fps= 19 q=30.0 size=    1792KiB time=00:00:02.91 bitrate=5033.3kbits/s speed=0.32x elapsed=0:00:09.10    \nframe=  201 fps= 21 q=32.0 size=    2048KiB time=00:00:03.25 bitrate=5162.3kbits/s speed=0.338x elapsed=0:00:09.61    \nframe=  229 fps= 22 q=31.0 size=    2304KiB time=00:00:03.76 bitrate=5011.0kbits/s speed=0.37x elapsed=0:00:10.18    \nframe=  250 fps= 23 q=33.0 size=    2560KiB time=00:00:04.13 bitrate=5073.8kbits/s speed=0.386x elapsed=0:00:10.70    \nframe=  257 fps= 23 q=32.0 size=    3072KiB time=00:00:04.18 bitrate=6015.8kbits/s speed=0.372x elapsed=0:00:11.23    \nframe=  295 fps= 25 q=-1.0 size=    3328KiB time=00:00:04.88 bitrate=5582.9kbits/s speed=0.415x elapsed=0:00:11.77    \n[mp4 @ 00000296ac4ca600] Starting second pass: moving the moov atom to the beginning of the file\n[out#0/mp4 @ 00000296ac4b9cc0] video:3448KiB audio:0KiB subtitle:0KiB other streams:0KiB global headers:0KiB muxing overhead: 0.127528%\nframe=  300 fps= 25 q=-1.0 Lsize=    3453KiB time=00:00:04.96 bitrate=5694.7kbits/s speed=0.42x elapsed=0:00:11.82    \n[libx264 @ 00000296ac4cbc80] frame I:2     Avg QP:28.38  size:341621\n[libx264 @ 00000296ac4cbc80] frame P:76    Avg QP:29.11  size: 32344\n[libx264 @ 00000296ac4cbc80] frame B:222   Avg QP:35.34  size:  1751\n[libx264 @ 00000296ac4cbc80] consecutive B-frames:  1.3%  0.0%  0.0% 98.7%\n[libx264 @ 00000296ac4cbc80] mb I  I16..4:  0.0% 95.4%  4.6%\n[libx264 @ 00000296ac4cbc80] mb P  I16..4:  0.0%  0.6%  0.0%  P16..4: 53.4%  7.9% 10.9%  0.0%  0.0%    skip:27.1%\n[libx264 @ 00000296ac4cbc80] mb B  I16..4:  0.0%  0.0%  0.0%  B16..8: 18.7%  0.4%  0.4%  direct: 0.4%  skip:80.1%  L0:37.5% L1:62.0% BI: 0.5%\n[libx264 @ 00000296ac4cbc80] 8x8 transform intra:94.8% inter:70.6%\n[libx264 @ 00000296ac4cbc80] direct mvs  spatial:95.5% temporal:4.5%\n[libx264 @ 00000296ac4cbc80] coded y,uvDC,uvAC intra: 97.4% 98.2% 90.0% inter: 6.2% 12.5% 4.4%\n[libx264 @ 00000296ac4cbc80] i16 v,h,dc,p: 60% 10% 30%  0%\n[libx264 @ 00000296ac4cbc80] i8 v,h,dc,ddl,ddr,vr,hd,vl,hu: 24% 10%  8%  6%  8% 10%  6% 14% 13%\n[libx264 @ 00000296ac4cbc80] i4 v,h,dc,ddl,ddr,vr,hd,vl,hu: 19%  6%  3%  7% 13% 16% 10% 13% 12%\n[libx264 @ 00000296ac4cbc80] i8c dc,h,v,p: 52% 12% 22% 14%\n[libx264 @ 00000296ac4cbc80] Weighted P-Frames: Y:2.6% UV:0.0%\n[libx264 @ 00000296ac4cbc80] ref P L0: 40.7% 21.8% 20.6%  6.9% 10.0%  0.0%\n[libx264 @ 00000296ac4cbc80] ref B L0: 98.2%  1.1%  0.7%  0.0%\n[libx264 @ 00000296ac4cbc80] ref B L1: 98.4%  1.6%\n[libx264 @ 00000296ac4cbc80] kb/s:5648.35\n",
  "seconds": 12.248913049697876,
  "probe_out": {}
}